<svg width="268" height="270" viewBox="0 0 268 270" fill="none" xmlns="http://www.w3.org/2000/svg">
<rect width="268" height="270" fill="#44C9F6"/>
<g clip-path="url(#clip0_1_2)">
<mask id="mask0_1_2" style="mask-type:luminance" maskUnits="userSpaceOnUse" x="13" y="11" width="241" height="247">
<path d="M253.787 11H13V258H253.787V11Z" fill="white"/>
</mask>
<g mask="url(#mask0_1_2)">
<path d="M116.957 253.694L92.387 240.611V196.992L133.394 217.87L174.4 196.992V240.611L149.83 253.694C144.834 256.358 139.165 257.76 133.394 257.759C127.623 257.76 121.954 256.358 116.957 253.694ZM221.898 93.1585C221.899 92.0112 221.572 90.8841 220.95 89.8905C220.328 88.8968 219.434 88.0718 218.356 87.4984C217.279 86.9249 216.057 86.6232 214.813 86.6237C213.57 86.6242 212.348 86.9268 211.271 87.5011L133.453 128L55.514 87.5021C54.4372 86.9281 53.2156 86.6257 51.9719 86.6253C50.7282 86.625 49.5063 86.9267 48.4292 87.5001C47.352 88.0735 46.4575 88.8984 45.8356 89.8919C45.2137 90.8854 44.8864 92.0123 44.8864 93.1595V215.318L29.6967 207.23C24.7017 204.567 20.5537 200.739 17.669 196.131C14.7843 191.522 13.2643 186.295 13.2615 180.973V88.0264C13.2642 82.7045 14.7843 77.4767 17.6693 72.8679C20.5543 68.2591 24.7028 64.4311 29.6982 61.7684L116.958 15.3054C121.954 12.642 127.623 11.2398 133.394 11.2398C139.165 11.2398 144.834 12.642 149.83 15.3054L237.09 61.7684C242.086 64.4306 246.235 68.2584 249.121 72.8674C252.006 77.4764 253.525 82.7044 253.527 88.0264V180.973C253.524 186.295 252.004 191.522 249.119 196.131C246.233 200.739 242.084 204.567 237.088 207.228L221.898 215.317V93.1585Z" fill="white"/>
</g>
</g>
<defs>
<clipPath id="clip0_1_2">
<rect width="241" height="247" fill="white" transform="translate(13 11)"/>
</clipPath>
</defs>
</svg>
